<?xml version="1.0" encoding="UTF-8" standalone="no"?>
<!DOCTYPE svg PUBLIC "-//W3C//DTD SVG 1.1//EN" "http://www.w3.org/Graphics/SVG/1.1/DTD/svg11.dtd">
<svg width="100%" height="100%" viewBox="0 0 635 606" version="1.1" xmlns="http://www.w3.org/2000/svg" xmlns:xlink="http://www.w3.org/1999/xlink" xml:space="preserve" xmlns:serif="http://www.serif.com/" style="fill-rule:evenodd;clip-rule:evenodd;stroke-linejoin:round;stroke-miterlimit:2;">
    <g transform="matrix(1,0,0,1,10.7993,-6.64574)">
        <g id="g1">
            <g>
                <g transform="matrix(1.24759,0,0,1.24759,471.465,521.613)">
                    <path d="M0,-48.706C-5.658,-55.364 -13.484,-59.373 -18.923,-60.903C-24.016,-62.337 -31.737,-63.644 -39.598,-61.727C-44.48,-60.536 -48.756,-58.235 -52.306,-54.888C-56.511,-50.924 -59.722,-45.458 -61.849,-38.642C-62.168,-37.62 -62.062,-36.537 -61.55,-35.593C-61.036,-34.645 -60.181,-33.962 -59.142,-33.67L-45.788,-29.91C-43.904,-29.38 -41.888,-30.33 -41.1,-32.12C-39.329,-36.141 -34.859,-42.493 -24.816,-39.852C-17.164,-37.836 -15.577,-31.444 -15.248,-28.787C-14.713,-24.464 -16.416,-19.995 -19.802,-16.832C-25.005,-11.974 -31.794,-12.917 -35.379,-13.912C-39.5,-15.056 -43.791,-12.656 -44.943,-8.562L-48.988,5.808C-49.579,7.906 -48.352,10.094 -46.253,10.685L-33.242,14.347C-31.144,14.938 -28.956,13.711 -28.365,11.613L-27.515,8.594C-27.495,8.521 -27.432,8.471 -27.355,8.466C-24.116,8.262 -17.7,7.371 -11.114,3.703C-2.706,-0.979 2.998,-8.471 5.839,-18.565C9.905,-33.011 4.908,-42.929 0,-48.706" style="fill:rgb(225,225,225);fill-rule:nonzero;"/>
                </g>
                <g transform="matrix(1.24759,0,0,1.24759,421.414,566.193)">
                    <path d="M0,-19.417L-1.138,-19.737C-6.58,-21.269 -12.253,-18.088 -13.785,-12.647C-15.316,-7.205 -12.136,-1.532 -6.694,0L-5.556,0.32C-0.114,1.852 5.559,-1.329 7.091,-6.771C8.622,-12.212 5.442,-17.885 0,-19.417" style="fill:rgb(225,225,225);fill-rule:nonzero;"/>
                </g>
                <g transform="matrix(1.24759,0,0,1.24759,507.242,404.447)">
                    <path d="M0,-34.381C-3.929,-36.533 -8.412,-37.018 -11.297,-36.755C-13.998,-36.508 -17.935,-35.719 -21.348,-33.36C-23.468,-31.896 -25.094,-30.01 -26.181,-27.757C-27.468,-25.088 -28.004,-21.882 -27.774,-18.229C-27.739,-17.681 -27.49,-17.182 -27.072,-16.823C-26.652,-16.464 -26.117,-16.293 -25.566,-16.343L-18.483,-16.99C-17.483,-17.082 -16.692,-17.906 -16.642,-18.907C-16.531,-21.158 -15.554,-25.018 -10.262,-25.594C-6.228,-26.03 -4.296,-23.26 -3.652,-22.048C-2.604,-20.076 -2.6,-17.624 -3.642,-15.489C-5.243,-12.209 -8.668,-11.417 -10.566,-11.236C-12.75,-11.029 -14.365,-9.093 -14.166,-6.922L-13.47,0.701C-13.368,1.814 -12.38,2.637 -11.267,2.535L-4.365,1.905C-3.252,1.803 -2.429,0.815 -2.531,-0.298L-2.677,-1.9C-2.68,-1.938 -2.659,-1.974 -2.623,-1.99C-1.11,-2.682 1.799,-4.284 4.281,-7.247C7.45,-11.03 8.808,-15.663 8.319,-21.017C7.619,-28.68 3.409,-32.514 0,-34.381" style="fill:rgb(245,245,245);fill-rule:nonzero;"/>
                </g>
                <g transform="matrix(1.24759,0,0,1.24759,498.138,422.701)">
                    <path d="M0,-10.524L-0.604,-10.469C-3.49,-10.205 -5.624,-7.643 -5.361,-4.756C-5.097,-1.87 -2.534,0.264 0.352,0.001L0.956,-0.054C3.843,-0.318 5.976,-2.881 5.713,-5.767C5.449,-8.654 2.887,-10.788 0,-10.524" style="fill:rgb(245,245,245);fill-rule:nonzero;"/>
                </g>
                <g transform="matrix(1.24759,0,0,1.24759,153.323,187.376)">
                    <path d="M0,-23.128C-2.662,-25.751 -6.148,-27.162 -8.523,-27.609C-10.747,-28.027 -14.086,-28.292 -17.362,-27.178C-19.397,-26.486 -21.132,-25.344 -22.518,-23.784C-24.16,-21.936 -25.321,-19.486 -25.969,-16.501C-26.066,-16.054 -25.98,-15.596 -25.727,-15.214C-25.472,-14.829 -25.081,-14.57 -24.628,-14.485L-18.796,-13.389C-17.974,-13.234 -17.151,-13.715 -16.883,-14.507C-16.28,-16.288 -14.616,-19.163 -10.238,-18.417C-6.901,-17.848 -5.983,-15.185 -5.743,-14.065C-5.352,-12.244 -5.908,-10.275 -7.231,-8.8C-9.264,-6.533 -12.192,-6.678 -13.757,-6.966C-15.556,-7.298 -17.293,-6.113 -17.629,-4.326L-18.809,1.949C-18.981,2.866 -18.376,3.752 -17.459,3.924L-11.778,4.992C-10.861,5.164 -9.976,4.559 -9.803,3.643L-9.555,2.324C-9.549,2.293 -9.524,2.269 -9.492,2.264C-8.12,2.054 -5.42,1.432 -2.753,-0.38C0.652,-2.692 2.799,-6.1 3.628,-10.508C4.814,-16.816 2.31,-20.853 0,-23.128" style="fill:rgb(245,245,245);fill-rule:nonzero;"/>
                </g>
                <g transform="matrix(1.24759,0,0,1.24759,135.068,205.612)">
                    <path d="M0,-8.526L-0.497,-8.619C-2.873,-9.066 -5.17,-7.497 -5.617,-5.12C-6.063,-2.744 -4.494,-0.447 -2.118,-0.001L-1.62,0.093C0.756,0.54 3.052,-1.03 3.499,-3.406C3.946,-5.783 2.376,-8.079 0,-8.526" style="fill:rgb(245,245,245);fill-rule:nonzero;"/>
                </g>
                <g transform="matrix(1.24759,0,0,1.24759,494.076,203.812)">
                    <path d="M0,-34.298C-3.921,-36.465 -8.401,-36.968 -11.287,-36.716C-13.99,-36.48 -17.93,-35.707 -21.352,-33.362C-23.478,-31.906 -25.111,-30.027 -26.207,-27.778C-27.505,-25.114 -28.054,-21.911 -27.838,-18.256C-27.805,-17.708 -27.558,-17.208 -27.142,-16.848C-26.723,-16.487 -26.189,-16.314 -25.638,-16.362L-18.552,-16.981C-17.552,-17.068 -16.757,-17.889 -16.704,-18.891C-16.584,-21.14 -15.591,-24.997 -10.296,-25.552C-6.261,-25.972 -4.34,-23.195 -3.701,-21.98C-2.661,-20.003 -2.667,-17.551 -3.717,-15.421C-5.331,-12.147 -8.759,-11.368 -10.658,-11.195C-12.842,-10.997 -14.465,-9.068 -14.275,-6.896L-13.609,0.73C-13.512,1.843 -12.527,2.67 -11.413,2.573L-4.509,1.97C-3.396,1.873 -2.569,0.888 -2.666,-0.226L-2.806,-1.828C-2.809,-1.866 -2.788,-1.902 -2.752,-1.918C-1.236,-2.603 1.68,-4.194 4.173,-7.147C7.357,-10.918 8.734,-15.545 8.266,-20.901C7.597,-28.567 3.401,-32.418 0,-34.298" style="fill:rgb(236,236,236);fill-rule:nonzero;"/>
                </g>
                <g transform="matrix(1.24759,0,0,1.24759,484.782,222.136)">
                    <path d="M0,-10.526L-0.604,-10.473C-3.492,-10.221 -5.636,-7.667 -5.383,-4.779C-5.131,-1.892 -2.577,0.252 0.311,0L0.915,-0.053C3.802,-0.305 5.946,-2.859 5.694,-5.747C5.442,-8.634 2.888,-10.778 0,-10.526" style="fill:rgb(236,236,236);fill-rule:nonzero;"/>
                </g>
                <g transform="matrix(1.24759,0,0,1.24759,228.273,502.256)">
                    <path d="M0,-43.08C-4.907,-45.391 -10.36,-45.647 -13.826,-45.116C-17.073,-44.619 -21.773,-43.375 -25.724,-40.274C-28.177,-38.347 -30.003,-35.949 -31.151,-33.146C-32.51,-29.826 -32.921,-25.912 -32.374,-21.514C-32.292,-20.854 -31.954,-20.269 -31.422,-19.867C-30.888,-19.463 -30.229,-19.297 -29.567,-19.398L-21.054,-20.702C-19.853,-20.886 -18.958,-21.94 -18.972,-23.154C-19.003,-25.882 -18.107,-30.619 -11.753,-31.705C-6.911,-32.53 -4.373,-29.325 -3.505,-27.907C-2.092,-25.601 -1.907,-22.638 -3.009,-19.981C-4.703,-15.899 -8.782,-14.689 -11.064,-14.332C-13.687,-13.92 -15.496,-11.462 -15.096,-8.853L-13.693,0.308C-13.488,1.646 -12.233,2.567 -10.896,2.362L-2.601,1.092C-1.264,0.887 -0.342,-0.368 -0.547,-1.706L-0.842,-3.63C-0.849,-3.676 -0.826,-3.721 -0.784,-3.743C0.994,-4.69 4.392,-6.841 7.173,-10.605C10.723,-15.41 12.024,-21.109 11.038,-27.543C9.628,-36.752 4.257,-41.075 0,-43.08" style="fill:rgb(236,236,236);fill-rule:nonzero;"/>
                </g>
                <g transform="matrix(1.24759,0,0,1.24759,220.81,523.044)">
                    <path d="M0,-12.693L-0.726,-12.582C-4.194,-12.051 -6.584,-8.796 -6.053,-5.328C-5.522,-1.859 -2.268,0.531 1.201,0L1.927,-0.111C5.396,-0.642 7.786,-3.897 7.254,-7.366C6.723,-10.834 3.469,-13.224 0,-12.693" style="fill:rgb(236,236,236);fill-rule:nonzero;"/>
                </g>
                <g transform="matrix(1.24759,0,0,1.24759,135.144,307.828)">
                    <path d="M0,-60.582C-6.9,-63.816 -14.561,-64.163 -19.431,-63.408C-23.991,-62.701 -30.591,-60.942 -36.133,-56.575C-39.576,-53.862 -42.136,-50.488 -43.741,-46.547C-45.642,-41.879 -46.21,-36.38 -45.43,-30.202C-45.313,-29.275 -44.836,-28.454 -44.089,-27.89C-43.337,-27.324 -42.411,-27.092 -41.482,-27.236L-29.524,-29.089C-27.837,-29.35 -26.582,-30.834 -26.605,-32.54C-26.656,-36.371 -25.409,-43.03 -16.484,-44.571C-9.683,-45.742 -6.109,-41.245 -4.886,-39.256C-2.896,-36.019 -2.629,-31.857 -4.17,-28.122C-6.539,-22.383 -12.268,-20.672 -15.472,-20.164C-19.156,-19.579 -21.692,-16.121 -21.124,-12.456L-19.13,0.41C-18.839,2.289 -17.073,3.581 -15.194,3.29L-3.544,1.484C-1.665,1.193 -0.373,-0.572 -0.665,-2.451L-1.084,-5.155C-1.094,-5.219 -1.062,-5.282 -1.003,-5.313C1.493,-6.648 6.262,-9.678 10.159,-14.974C15.135,-21.733 16.948,-29.743 15.547,-38.781C13.543,-51.716 5.986,-57.776 0,-60.582" style="fill:rgb(236,236,236);fill-rule:nonzero;"/>
                </g>
                <g transform="matrix(1.24759,0,0,1.24759,124.805,336.979)">
                    <path d="M0,-17.83L-1.019,-17.672C-5.891,-16.917 -9.241,-12.339 -8.486,-7.467C-7.731,-2.594 -3.153,0.755 1.719,0L2.739,-0.158C7.611,-0.913 10.96,-5.491 10.205,-10.363C9.45,-15.236 4.872,-18.585 0,-17.83" style="fill:rgb(236,236,236);fill-rule:nonzero;"/>
                </g>
                <g transform="matrix(1.24759,0,0,1.24759,345.25,78.6306)">
                    <path d="M0,41.635L9.013,43.137C13.444,48.433 19.509,52.486 26.783,54.422C43.941,58.988 62.094,49.567 68.273,32.922C75.412,13.69 64.509,-7.55 44.532,-12.852C27.573,-17.353 9.629,-8.218 3.267,8.134C0.109,16.249 0.202,24.748 2.846,32.282L2.835,32.266L0,41.635Z" style="fill:white;fill-rule:nonzero;"/>
                </g>
                <g transform="matrix(1.24759,0,0,1.24759,345.25,78.2651)">
                    <path d="M0,41.928C0,41.928 0.046,41.732 0.16,41.332C0.281,40.911 0.453,40.315 0.677,39.541C1.15,37.927 1.841,35.573 2.734,32.528L2.796,32.318L2.922,32.499L2.933,32.515L2.746,32.61C1.307,28.54 0.081,22.734 1.104,15.885C1.601,12.477 2.694,8.871 4.456,5.292C6.247,1.732 8.799,-1.743 12.1,-4.758C15.411,-7.754 19.482,-10.258 24.088,-11.891C28.682,-13.513 33.827,-14.324 39.052,-13.765C44.267,-13.252 49.527,-11.515 54.241,-8.609C58.98,-5.73 63.024,-1.512 65.921,3.472C67.453,5.962 68.476,8.692 69.35,11.413C69.549,12.099 69.678,12.803 69.844,13.495C69.98,14.193 70.208,14.873 70.267,15.581C70.352,16.284 70.437,16.985 70.521,17.683L70.642,18.731L70.66,19.782C70.864,25.382 69.667,30.85 67.494,35.672C65.338,40.522 61.995,44.587 58.241,47.757C54.466,50.927 50.202,53.173 45.907,54.507C41.601,55.826 37.283,56.252 33.287,55.979C32.292,55.863 31.314,55.749 30.352,55.637C29.394,55.502 28.472,55.249 27.557,55.066C25.732,54.67 24.028,54.07 22.431,53.425C16.014,50.791 11.662,46.777 8.934,43.496L8.995,43.531C6.092,43.021 3.837,42.625 2.286,42.352C1.544,42.218 0.974,42.115 0.568,42.042C0.184,41.971 0,41.928 0,41.928C0,41.928 0.215,41.952 0.612,42.011C1.026,42.074 1.607,42.163 2.363,42.278C3.904,42.521 6.145,42.874 9.029,43.328L9.066,43.334L9.091,43.364C11.839,46.597 16.187,50.543 22.557,53.117C24.142,53.747 25.833,54.333 27.642,54.715C28.548,54.892 29.46,55.139 30.409,55.267C31.36,55.374 32.328,55.483 33.312,55.593C37.264,55.846 41.53,55.41 45.779,54.094C50.017,52.763 54.221,50.533 57.939,47.397C61.636,44.261 64.925,40.248 67.042,35.464C69.176,30.708 70.351,25.317 70.145,19.801L70.128,18.765L70.008,17.734C69.924,17.045 69.84,16.355 69.756,15.662C69.698,14.965 69.472,14.296 69.338,13.608C69.174,12.927 69.047,12.233 68.851,11.556C67.988,8.877 66.982,6.187 65.471,3.734C62.617,-1.177 58.635,-5.334 53.969,-8.172C49.327,-11.038 44.142,-12.756 39.004,-13.269C33.856,-13.828 28.782,-13.037 24.245,-11.447C19.697,-9.846 15.671,-7.385 12.392,-4.436C9.123,-1.468 6.589,1.956 4.804,5.468C3.047,8.998 1.947,12.564 1.437,15.936C0.386,22.711 1.557,28.479 2.946,32.54L3.199,33.281L2.759,32.635L2.748,32.619L2.936,32.589C2,35.591 1.276,37.912 0.78,39.503C0.532,40.283 0.343,40.881 0.209,41.305C0.078,41.712 0,41.928 0,41.928" style="fill:rgb(26,46,53);fill-rule:nonzero;"/>
                </g>
                <g transform="matrix(1.24759,0,0,1.24759,398.949,113.51)">
                    <path d="M0,-23.217C-2.667,-24.985 -5.828,-25.599 -7.897,-25.585C-9.834,-25.572 -12.683,-25.247 -15.254,-23.774C-16.85,-22.859 -18.121,-21.615 -19.03,-20.077C-20.106,-18.255 -20.681,-16.006 -20.736,-13.392C-20.745,-13 -20.597,-12.63 -20.321,-12.35C-20.044,-12.068 -19.674,-11.915 -19.279,-11.917L-14.199,-11.952C-13.482,-11.957 -12.869,-12.496 -12.774,-13.206C-12.559,-14.8 -11.632,-17.489 -7.831,-17.58C-4.934,-17.649 -3.726,-15.561 -3.34,-14.66C-2.713,-13.193 -2.858,-11.448 -3.728,-9.991C-5.064,-7.754 -7.549,-7.395 -8.911,-7.381C-10.477,-7.365 -11.743,-6.085 -11.732,-4.527L-11.695,0.939C-11.69,1.737 -11.036,2.382 -10.237,2.377L-5.288,2.343C-4.489,2.338 -3.844,1.684 -3.85,0.886L-3.858,-0.263C-3.858,-0.29 -3.841,-0.314 -3.814,-0.324C-2.696,-0.725 -0.529,-1.69 1.416,-3.65C3.898,-6.151 5.143,-9.367 5.117,-13.207C5.08,-18.702 2.314,-21.684 0,-23.217" style="fill:rgb(255,115,93);fill-rule:nonzero;"/>
                </g>
                <g transform="matrix(1.24759,0,0,1.24759,389.584,127.539)">
                    <path d="M0,-7.511L-0.433,-7.508C-2.503,-7.494 -4.176,-5.798 -4.162,-3.728C-4.148,-1.658 -2.452,0.014 -0.382,0L0.051,-0.003C2.121,-0.017 3.794,-1.712 3.78,-3.782C3.766,-5.852 2.07,-7.525 0,-7.511" style="fill:rgb(255,115,93);fill-rule:nonzero;"/>
                </g>
                <g transform="matrix(1.24759,0,0,1.24759,406.795,443.141)">
                    <path d="M0,-205.459C-23.611,-221.34 -51.684,-226.998 -70.083,-226.998C-87.314,-226.998 -112.672,-224.281 -135.624,-211.334C-149.878,-203.294 -161.251,-192.308 -169.428,-178.684C-179.113,-162.546 -184.355,-142.578 -185.008,-119.333C-185.106,-115.846 -183.818,-112.546 -181.38,-110.039C-178.931,-107.52 -175.648,-106.133 -172.135,-106.133L-126.954,-106.133C-120.578,-106.133 -115.098,-110.889 -114.207,-117.196C-112.203,-131.365 -103.794,-155.221 -69.983,-155.804C-44.226,-156.246 -33.598,-137.6 -30.224,-129.561C-24.732,-116.479 -26.125,-100.967 -33.95,-88.065C-45.973,-68.243 -68.09,-65.208 -80.203,-65.164C-94.134,-65.113 -105.467,-53.804 -105.467,-39.955L-105.467,8.663C-105.467,15.763 -99.69,21.539 -92.59,21.539L-48.57,21.539C-41.47,21.539 -35.693,15.763 -35.693,8.663L-35.693,-1.552C-35.693,-1.797 -35.54,-2.009 -35.304,-2.092C-25.332,-5.591 -6.003,-14.045 11.407,-31.355C33.633,-53.453 44.902,-81.973 44.902,-116.124C44.902,-164.999 20.484,-191.681 0,-205.459" style="fill:rgb(255,115,93);fill-rule:nonzero;"/>
                </g>
                <g transform="matrix(1.24759,0,0,1.24759,317.359,577.418)">
                    <path d="M0,-63.41L3.553,-63.41C21.035,-63.41 35.258,-49.187 35.258,-31.705C35.258,-14.223 21.035,0 3.553,0L0,0C-17.482,0 -31.705,-14.223 -31.705,-31.705C-31.705,-49.187 -17.482,-63.41 0,-63.41" style="fill:rgb(26,46,53);fill-rule:nonzero;"/>
                </g>
                <g transform="matrix(1.24759,0,0,1.24759,291.07,427.571)">
                    <path d="M0,43.422L44.002,43.422C51.099,43.422 56.873,37.829 56.873,30.954L56.873,11.077C56.873,10.84 57.026,10.635 57.262,10.555C62.463,8.787 69.74,5.544 77.974,0.484C49.86,0.287 -1.385,0 -12.871,0.418L-12.871,30.954C-12.871,37.829 -7.097,43.422 0,43.422" style="fill:rgb(26,46,53);fill-rule:nonzero;"/>
                </g>
                <g transform="matrix(1.24759,0,0,1.24759,336.284,94.9939)">
                    <path d="M0,89.751L-28.237,7.75C-34.2,-12.782 -51.119,-26.425 -71.478,-19.896L-73.324,-19.183C-91.903,-12.005 -101.864,8.234 -96.202,27.33C-90.935,45.097 -84.887,64.66 -81.202,73.86C-73.572,92.904 -53.597,87.559 -53.597,87.559C-53.554,87.544 -49.152,100.253 -47.226,105.958L-36.885,116.176L-32.613,111.509L0,89.751Z" style="fill:rgb(255,193,157);fill-rule:nonzero;"/>
                </g>
                <g transform="matrix(1.24759,0,0,1.24759,269.416,189.723)">
                    <path d="M0,11.629C0,11.629 12.335,7.677 22.07,-5.364C22.07,-5.364 21.634,11.339 1.874,16.993L0,11.629Z" style="fill:rgb(255,156,106);fill-rule:nonzero;"/>
                </g>
                <g transform="matrix(0.386456,1.18623,1.18623,-0.386456,234.818,141.163)">
                    <path d="M2.783,-2.019C4.331,-1.991 5.583,-0.657 5.583,0.96C5.583,2.574 4.332,3.863 2.783,3.834C1.236,3.806 -0.018,2.472 -0.018,0.857C-0.019,-0.759 1.235,-2.048 2.783,-2.019" style="fill:rgb(26,46,53);fill-rule:nonzero;"/>
                </g>
                <g transform="matrix(1.24759,0,0,1.24759,225.02,129.763)">
                    <path d="M0,5.412C0.476,5.637 1.954,3.305 4.899,2.177C7.823,1.007 10.566,1.687 10.745,1.203C10.84,0.984 10.247,0.473 9.043,0.152C7.854,-0.172 6.021,-0.225 4.192,0.491C2.364,1.209 1.083,2.478 0.465,3.511C-0.171,4.554 -0.229,5.317 0,5.412" style="fill:rgb(26,46,53);fill-rule:nonzero;"/>
                </g>
                <g transform="matrix(1.24759,0,0,1.24759,264.174,126.331)">
                    <path d="M0,5.411C0.477,5.636 1.959,3.304 4.9,2.176C7.824,1.007 10.567,1.686 10.747,1.202C10.841,0.983 10.252,0.472 9.044,0.152C7.856,-0.172 6.022,-0.225 4.193,0.49C2.365,1.208 1.085,2.478 0.465,3.51C-0.168,4.553 -0.227,5.316 0,5.411" style="fill:rgb(26,46,53);fill-rule:nonzero;"/>
                </g>
                <g transform="matrix(1.24759,0,0,1.24759,259.042,128.314)">
                    <path d="M0,22.791C-0.051,22.619 -2.001,23.009 -5.109,23.774C-5.89,23.987 -6.659,24.113 -6.983,23.649C-7.369,23.175 -7.368,22.244 -7.342,21.229C-7.338,19.139 -7.335,16.949 -7.33,14.653C-7.392,5.32 -7.745,-2.236 -8.121,-2.231C-8.497,-2.224 -8.753,5.345 -8.691,14.677C-8.657,16.972 -8.628,19.159 -8.596,21.252C-8.55,22.215 -8.665,23.372 -7.847,24.349C-7.428,24.832 -6.719,25.027 -6.188,24.97C-5.65,24.931 -5.224,24.776 -4.844,24.655C-1.801,23.664 0.053,22.963 0,22.791" style="fill:rgb(26,46,53);fill-rule:nonzero;"/>
                </g>
                <g transform="matrix(1.24759,0,0,1.24759,255.69,104.748)">
                    <path d="M0,6.177C0.69,6.773 3.238,4.881 6.683,3.465C10.101,1.978 13.232,1.467 13.285,0.557C13.296,0.129 12.449,-0.321 10.991,-0.456C9.544,-0.596 7.495,-0.352 5.436,0.517C3.38,1.389 1.778,2.69 0.87,3.825C-0.048,4.966 -0.316,5.887 0,6.177" style="fill:rgb(26,46,53);fill-rule:nonzero;"/>
                </g>
                <g transform="matrix(1.24759,0,0,1.24759,220.683,118.706)">
                    <path d="M0,5.681C0.863,6.125 3.013,4.539 5.897,3.437C8.747,2.25 11.411,1.914 11.715,1.002C11.837,0.57 11.203,0.04 9.897,-0.201C8.607,-0.444 6.65,-0.31 4.679,0.476C2.709,1.264 1.21,2.509 0.457,3.569C-0.312,4.637 -0.392,5.453 0,5.681" style="fill:rgb(26,46,53);fill-rule:nonzero;"/>
                </g>
                <g transform="matrix(1.24759,0,0,1.24759,305.543,135.004)">
                    <path d="M0,-10.474C0.271,-10.741 11.646,-19.443 16.283,-6.199C20.919,7.046 6.666,8.969 6.51,8.597C6.354,8.225 0,-10.474 0,-10.474" style="fill:rgb(255,193,157);fill-rule:nonzero;"/>
                </g>
                <g transform="matrix(1.24759,0,0,1.24759,316.521,123.951)">
                    <path d="M0,11.023C0.043,10.96 0.287,11.103 0.74,11.146C1.181,11.187 1.877,11.078 2.477,10.577C3.696,9.574 4.096,6.94 3.325,4.531C2.937,3.314 2.282,2.254 1.523,1.454C0.779,0.626 -0.084,0.169 -0.833,0.29C-1.59,0.374 -1.942,0.97 -1.973,1.399C-2.021,1.832 -1.844,2.067 -1.906,2.114C-1.932,2.16 -2.268,1.991 -2.353,1.407C-2.39,1.125 -2.345,0.758 -2.122,0.395C-1.895,0.025 -1.474,-0.27 -0.965,-0.389C0.081,-0.676 1.329,-0.058 2.164,0.821C3.057,1.684 3.821,2.865 4.256,4.232C5.106,6.931 4.614,9.907 2.893,11.13C2.047,11.699 1.171,11.69 0.66,11.518C0.136,11.335 -0.038,11.063 0,11.023" style="fill:rgb(255,156,106);fill-rule:nonzero;"/>
                </g>
                <g transform="matrix(-1.08044,-0.623795,0.623795,-1.08044,267.532,161.931)">
                    <path d="M0,-10.723C-0.467,-10.596 0.55,-7.539 -1.34,-4.495C-3.223,-1.445 -6.595,-0.698 -6.476,-0.263C-6.455,-0.057 -5.552,0.088 -4.164,-0.335C-2.801,-0.74 -0.976,-1.832 0.181,-3.694C1.331,-5.558 1.423,-7.563 1.108,-8.851C0.797,-10.168 0.203,-10.811 0,-10.723" style="fill:rgb(26,46,53);fill-rule:nonzero;"/>
                </g>
                <g transform="matrix(1.24759,0,0,1.24759,175.007,80.6935)">
                    <path d="M0,29.492C-0.064,28.639 0.277,27.797 0.828,27.142C2.029,25.712 3.817,25.216 5.495,24.594C9.671,23.047 13.458,20.505 16.533,17.285C14.995,17.084 13.492,16.71 12.092,16.041C9.201,14.66 6.82,11.826 6.792,8.622C6.786,8.021 6.901,7.349 7.384,6.991C8.151,6.424 9.201,7.003 10.036,7.462C12.783,8.97 14.937,9.274 17.773,7.941C19.534,7.113 21.159,6.08 22.28,4.68C22.316,4.6 22.344,4.516 22.381,4.437C22.819,3.484 23.251,2.569 23.682,1.679C23.683,1.677 23.684,1.675 23.685,1.672L23.684,1.676C26.923,-5.017 29.999,-9.947 33.782,-13.275C39.327,-18.153 49.762,-23.015 57.123,-23.621C64.483,-24.228 72.46,-20.894 75.828,-14.321C78.481,-18.847 84.163,-20.818 89.417,-20.59L89.514,-20.681C95.283,-20.66 100.102,-16.271 103.456,-11.578C103.639,-11.321 103.813,-11.057 103.992,-10.797C106.693,-8.66 109.878,-7.137 113.263,-6.491C113.86,-6.377 114.552,-6.224 114.813,-5.675C115.072,-5.131 114.76,-4.495 114.414,-4.001C113.495,-2.688 112.268,-1.606 110.874,-0.816C111.78,0.261 112.755,1.274 113.842,2.186C114.766,2.962 115.866,3.893 115.72,5.091C115.607,6.017 114.72,6.694 113.805,6.873C112.889,7.052 111.948,6.843 111.039,6.634C112.093,7.801 113.146,8.969 114.2,10.136C112.46,11.112 110.488,11.64 108.495,11.728C109.128,16.999 111.499,26.339 111.407,30.095C107.916,31.394 106.928,31.313 105.363,32.525C103.339,34.093 105.643,37.842 102.254,37.741C100.529,37.688 96.171,32.755 95.117,31.388C88.13,22.313 83.138,11.714 80.574,0.552C77.654,-0.963 74.44,-1.909 71.165,-2.219L71.468,-2.093C65.394,-2.066 58.621,-1.758 54.382,2.592C51.094,5.966 50.208,10.923 48.393,15.271C44.951,23.509 39.739,29.096 31.453,32.422C32.753,38.533 35.895,48.167 37.531,53.72L29.03,44.447L29.042,44.493C28.44,43.986 27.902,43.45 27.375,42.91L27.203,42.751L27.194,42.726C26.352,41.857 25.532,40.978 24.568,40.165C24.556,40.187 24.544,40.208 24.532,40.23C22.496,43.877 16.739,41.426 17.95,37.428C18.189,36.635 18.544,35.879 19.013,35.193C18.11,36.936 16.311,38.253 14.348,38.332C12.386,38.412 10.382,37.105 9.885,35.204C9.546,33.908 10.05,32.464 11.012,31.565C8.691,32.59 6.067,32.93 3.569,32.476C1.931,32.179 0.142,31.37 0,29.492" style="fill:rgb(26,46,53);fill-rule:nonzero;"/>
                </g>
                <g transform="matrix(1.24759,0,0,1.24759,262.982,105.627)">
                    <path d="M0,-29.935C-0.021,-29.871 0.992,-29.709 2.569,-28.843C4.133,-27.979 6.163,-26.231 7.808,-23.459C8.635,-22.085 9.41,-20.495 10.038,-18.711C10.674,-16.93 11.204,-14.969 11.776,-12.908C12.355,-10.849 12.961,-8.672 13.869,-6.505C14.323,-5.423 14.852,-4.346 15.487,-3.308C16.119,-2.29 16.831,-1.194 17.999,-0.539C18.934,0 20.165,-0.048 21.056,-0.583C21.964,-1.096 22.643,-1.914 23.026,-2.84C23.76,-4.733 23.421,-6.687 23.157,-8.422L22.768,-8.23C23.947,-7.002 25.138,-5.799 26.554,-5.002C27.956,-4.193 29.603,-3.91 31.046,-4.278C31.764,-4.461 32.427,-4.819 32.919,-5.332C33.425,-5.844 33.69,-6.506 33.805,-7.146C33.903,-7.792 33.844,-8.443 33.612,-9.008C33.376,-9.571 32.96,-10.038 32.459,-10.295L32.318,-10.04C34.411,-8.865 36.31,-8.506 37.579,-8.384C38.219,-8.324 38.712,-8.328 39.045,-8.337C39.377,-8.354 39.547,-8.372 39.547,-8.386C39.547,-8.4 39.375,-8.408 39.045,-8.418C38.715,-8.435 38.226,-8.457 37.596,-8.54C36.348,-8.709 34.49,-9.109 32.464,-10.293L32.323,-10.037C33.218,-9.576 33.683,-8.377 33.466,-7.204C33.352,-6.623 33.104,-6.03 32.656,-5.589C32.214,-5.139 31.609,-4.816 30.95,-4.656C29.62,-4.331 28.084,-4.599 26.765,-5.374C25.424,-6.14 24.268,-7.313 23.096,-8.545L22.599,-9.068L22.707,-8.352C22.97,-6.619 23.263,-4.732 22.588,-3.02C22.245,-2.192 21.62,-1.448 20.825,-1.002C20.034,-0.539 19.039,-0.503 18.227,-0.962C17.209,-1.526 16.512,-2.556 15.893,-3.558C15.272,-4.571 14.752,-5.624 14.302,-6.687C13.403,-8.815 12.792,-10.975 12.202,-13.028C11.618,-15.084 11.072,-17.049 10.412,-18.847C9.759,-20.647 8.955,-22.253 8.097,-23.638C6.389,-26.431 4.278,-28.18 2.659,-29.007C1.025,-29.837 0,-29.935 0,-29.935" style="fill:rgb(55,90,100);fill-rule:nonzero;"/>
                </g>
                <g transform="matrix(1.24759,0,0,1.24759,196.509,59.9938)">
                    <path d="M0,46.603C-0.003,46.61 0.066,46.637 0.202,46.68C0.366,46.73 0.566,46.789 0.81,46.863C1.077,46.947 1.411,47.037 1.816,47.1C2.218,47.174 2.681,47.273 3.213,47.305C5.313,47.526 8.497,47.359 12.029,45.875C15.531,44.415 19.374,41.639 22.198,37.439C25.088,33.293 27.04,27.997 28.163,22.325C28.746,19.483 29.046,16.674 29.53,14.008C30.004,11.343 30.669,8.799 31.78,6.586C32.868,4.37 34.374,2.485 36.168,1.231C37.055,0.587 38.031,0.169 38.991,-0.145C39.965,-0.431 40.938,-0.556 41.869,-0.577C43.736,-0.605 45.408,-0.157 46.764,0.432C48.127,1.028 49.171,1.796 49.949,2.497C51.457,3.967 51.909,5.093 51.972,5.049C51.98,5.045 51.95,4.979 51.885,4.851C51.803,4.699 51.705,4.516 51.584,4.291C51.307,3.805 50.819,3.132 50.078,2.362C49.307,1.628 48.258,0.82 46.874,0.187C45.497,-0.439 43.79,-0.923 41.866,-0.916C40.907,-0.907 39.9,-0.787 38.887,-0.5C37.889,-0.187 36.862,0.246 35.94,0.905C34.07,2.19 32.508,4.127 31.385,6.388C30.235,8.65 29.551,11.24 29.067,13.924C28.574,16.611 28.27,19.415 27.692,22.23C26.577,27.86 24.659,33.093 21.834,37.188C19.071,41.337 15.331,44.08 11.897,45.563C8.438,47.062 5.31,47.28 3.229,47.118C1.13,46.949 0.016,46.535 0,46.603" style="fill:rgb(55,90,100);fill-rule:nonzero;"/>
                </g>
                <g transform="matrix(1.24759,0,0,1.24759,190.568,100.804)">
                    <path d="M0,6.001C-0.006,6.034 0.301,6.117 0.865,6.24C1.427,6.374 2.259,6.489 3.29,6.56C4.323,6.639 5.56,6.617 6.924,6.482C8.285,6.323 9.771,6.037 11.283,5.567C12.791,5.08 14.171,4.458 15.376,3.805C16.569,3.13 17.593,2.436 18.392,1.777C19.194,1.125 19.807,0.551 20.19,0.119C20.581,-0.307 20.784,-0.551 20.76,-0.574C20.695,-0.638 19.819,0.29 18.184,1.508C17.372,2.123 16.346,2.775 15.165,3.416C13.972,4.035 12.615,4.632 11.138,5.109C9.656,5.569 8.204,5.862 6.873,6.043C5.538,6.198 4.323,6.256 3.305,6.221C1.267,6.166 0.016,5.912 0,6.001" style="fill:rgb(55,90,100);fill-rule:nonzero;"/>
                </g>
                <g transform="matrix(1.24759,0,0,1.24759,235.817,310.082)">
                    <path d="M0,-23.127C-0.173,-23.077 2.094,-11.725 4.314,0.05L5.015,0.05C2.796,-11.725 0.173,-23.177 0,-23.127" style="fill:rgb(26,46,53);fill-rule:nonzero;"/>
                </g>
                <g transform="matrix(1.24759,0,0,1.24759,247.769,337.001)">
                    <path d="M0,-20.958C6.418,-20.958 12.326,-25.582 13.223,-31.88C15.24,-46.028 23.313,-69.974 57.347,-70.557C83.273,-70.998 94.186,-52.647 97.243,-44.484C102.096,-31.527 101.493,-15.8 93.617,-2.917C81.515,16.876 59.252,19.907 47.059,19.951C33.037,20.002 21.629,31.294 21.629,45.123L21.629,97.986L91.862,96.665L91.862,83.47C91.862,83.226 92.016,83.014 92.254,82.931C100.809,79.953 114.374,74.308 129.635,62.001L125.063,1.121C125.063,1.121 138.429,-24.568 137.767,-30.348C131.715,-83.151 113.756,-113.029 106.458,-115.816C98.263,-118.944 66.623,-117.421 66.623,-117.421C66.623,-117.421 52.958,-92.101 33.787,-89.297C23.12,-87.736 19.225,-101.057 19.225,-101.057L-5.553,-86.53C-23.188,-77.634 -26.61,-43.027 -26.934,-20.958L0,-20.958Z" style="fill:rgb(55,90,100);fill-rule:nonzero;"/>
                </g>
                <g transform="matrix(1.24759,0,0,1.24759,-1.22822,-2.50496)">
                    <g opacity="0.3">
                        <g transform="matrix(1,0,0,1,280.975,318.099)">
                            <path d="M0,-35.823C14.157,-32.219 28.114,-27.66 42.271,-24.056C43.321,-23.788 44.44,-23.48 45.149,-22.66C46.191,-21.452 45.956,-19.621 45.49,-18.096C44,-13.229 40.789,-9.023 36.965,-5.664C33.885,-2.958 30.195,-0.675 26.107,-0.356C21.555,0 17.179,-2.112 13.33,-4.568C3.488,-10.848 -4.911,-20.027 -10.189,-30.44C-10.189,-30.44 -6.87,-31.806 -4.33,-33.164C-1.97,-34.425 0,-35.823 0,-35.823" style="fill-rule:nonzero;"/>
                        </g>
                    </g>
                </g>
                <g transform="matrix(1.24759,0,0,1.24759,368.727,371.097)">
                    <path d="M0,-71.447C5.661,-58.385 4.225,-42.895 -3.841,-30.012C-8.319,-22.861 -14.019,-17.757 -20.235,-14.333C-13.539,-7.048 -6.743,-0.631 -0.023,4.137C7.208,9.269 23.874,7.81 30.193,-3.424C37.989,-17.284 38.64,-52.692 38.64,-52.692L40.121,-74.038L-3.476,-80.716L-3.826,-79.521C-1.955,-76.717 -0.853,-73.415 0,-71.447" style="fill:rgb(255,193,157);fill-rule:nonzero;"/>
                </g>
                <g transform="matrix(1.24759,0,0,1.24759,274.016,223.72)">
                    <path d="M0,37.712L-2.482,41.625C-4.369,42.927 -6.165,42.212 -7.331,39.793L-34.169,-1.057L-27.631,-5.215L2.012,33.959C2.012,33.959 2.429,36.036 0,37.712" style="fill:rgb(55,90,100);fill-rule:nonzero;"/>
                </g>
                <g transform="matrix(1.24759,0,0,1.24759,232.145,215.953)">
                    <path d="M0,-45.771C-7.562,-50.039 -17.002,-50.733 -25.462,-46.808C-32.216,-43.674 -37.346,-38.097 -39.905,-31.105C-42.466,-24.113 -42.149,-16.543 -39.015,-9.789C-35.881,-3.034 -30.305,2.096 -23.312,4.655C-16.321,7.215 -8.75,6.899 -1.995,3.765C4.759,0.631 9.888,-4.946 12.448,-11.938C15.008,-18.93 14.692,-26.5 11.558,-33.254C9.014,-38.737 4.901,-43.005 0,-45.771M-28.443,4.469C-33.697,1.503 -38.103,-3.069 -40.83,-8.947C-44.189,-16.185 -44.528,-24.299 -41.785,-31.793C-39.041,-39.287 -33.543,-45.264 -26.304,-48.623C-11.361,-55.557 6.438,-49.041 13.373,-34.096C16.732,-26.857 17.07,-18.743 14.327,-11.25C11.583,-3.756 6.086,2.221 -1.153,5.58C-10.22,9.786 -20.339,9.042 -28.443,4.469" style="fill:rgb(26,46,53);fill-rule:nonzero;"/>
                </g>
                <g transform="matrix(1.24759,0,0,1.24759,233.732,214.389)">
                    <path d="M0,-45.771C-7.562,-50.039 -17.002,-50.733 -25.462,-46.808C-32.216,-43.674 -37.346,-38.097 -39.905,-31.105C-42.466,-24.113 -42.149,-16.543 -39.015,-9.789C-35.881,-3.034 -30.305,2.096 -23.312,4.655C-16.321,7.215 -8.75,6.899 -1.995,3.765C4.759,0.631 9.888,-4.946 12.448,-11.938C15.008,-18.93 14.692,-26.5 11.558,-33.254C9.014,-38.737 4.901,-43.005 0,-45.771M-28.443,4.469C-33.697,1.504 -38.103,-3.069 -40.83,-8.947C-44.189,-16.185 -44.528,-24.299 -41.785,-31.793C-39.041,-39.287 -33.543,-45.264 -26.304,-48.623C-11.361,-55.557 6.438,-49.04 13.373,-34.096C16.732,-26.857 17.07,-18.743 14.327,-11.25C11.584,-3.756 6.086,2.221 -1.153,5.58C-10.22,9.786 -20.339,9.042 -28.443,4.469" style="fill:rgb(55,90,100);fill-rule:nonzero;"/>
                </g>
                <g transform="matrix(1.24759,0,0,1.24759,247.606,156.044)">
                    <path d="M0,25.664C-0.011,25.664 -0.021,25.494 -0.031,25.173C-0.054,24.852 -0.016,24.378 -0.088,23.772C-0.155,22.557 -0.428,20.804 -1.077,18.729C-1.397,17.69 -1.85,16.587 -2.385,15.427C-2.966,14.29 -3.603,13.078 -4.429,11.901C-5.234,10.713 -6.159,9.515 -7.235,8.381C-8.303,7.243 -9.486,6.129 -10.821,5.147C-12.149,4.158 -13.546,3.334 -14.957,2.664C-16.376,2.01 -17.806,1.523 -19.192,1.149C-21.978,0.448 -24.587,0.255 -26.756,0.382C-28.927,0.502 -30.666,0.844 -31.839,1.171C-32.434,1.304 -32.875,1.482 -33.186,1.562C-33.494,1.655 -33.658,1.698 -33.662,1.688C-33.666,1.677 -33.509,1.614 -33.207,1.502C-32.902,1.401 -32.465,1.204 -31.872,1.051C-30.704,0.686 -28.958,0.306 -26.769,0.156C-24.581,-0.001 -21.942,0.17 -19.119,0.863C-17.714,1.233 -16.264,1.72 -14.825,2.38C-13.394,3.055 -11.975,3.889 -10.629,4.891C-9.278,5.885 -8.082,7.014 -7.006,8.168C-5.921,9.317 -4.991,10.531 -4.184,11.736C-3.357,12.93 -2.721,14.159 -2.146,15.313C-1.615,16.489 -1.17,17.609 -0.861,18.662C-0.233,20.765 0.007,22.54 0.037,23.764C0.089,24.375 0.031,24.853 0.034,25.174C0.022,25.496 0.011,25.665 0,25.664" style="fill:white;fill-rule:nonzero;"/>
                </g>
                <g transform="matrix(1.24759,0,0,1.24759,208.711,211.98)">
                    <path d="M0,5.149C0.021,5.075 1.385,5.583 3.686,5.897C3.976,5.932 4.277,5.969 4.59,6.006C4.904,6.042 5.235,6.042 5.575,6.063C6.255,6.118 6.983,6.082 7.749,6.067C9.277,5.976 10.951,5.745 12.662,5.296C14.368,4.824 15.931,4.183 17.299,3.494C17.969,3.122 18.617,2.787 19.177,2.398C19.46,2.209 19.746,2.042 20,1.854C20.251,1.664 20.494,1.481 20.726,1.306C22.558,-0.122 23.482,-1.246 23.537,-1.194C23.554,-1.179 23.322,-0.903 22.886,-0.414C22.673,-0.166 22.401,0.129 22.053,0.438C21.71,0.752 21.338,1.133 20.867,1.483C20.636,1.666 20.395,1.856 20.145,2.054C19.892,2.25 19.606,2.423 19.323,2.62C18.761,3.023 18.111,3.371 17.436,3.755C16.058,4.468 14.475,5.127 12.745,5.605C11.011,6.06 9.311,6.286 7.762,6.362C6.986,6.369 6.248,6.395 5.56,6.328C5.216,6.301 4.883,6.294 4.565,6.252C4.25,6.207 3.946,6.163 3.654,6.122C3.071,6.056 2.558,5.912 2.104,5.814C1.647,5.721 1.264,5.603 0.955,5.495C0.332,5.292 -0.007,5.17 0,5.149" style="fill:white;fill-rule:nonzero;"/>
                </g>
                <g transform="matrix(0.894011,-0.870186,-0.870186,-0.894011,238.995,183.944)">
                    <path d="M-8.583,-3.488C-8.671,-3.488 -8.743,2.023 -8.742,8.817C-8.742,15.614 -8.671,21.123 -8.583,21.123C-8.494,21.122 -8.423,15.615 -8.423,8.817C-8.422,2.022 -8.494,-3.487 -8.583,-3.488" style="fill:white;fill-rule:nonzero;"/>
                </g>
                <g transform="matrix(1.24759,0,0,1.24759,228.62,168.634)">
                    <path d="M0,28.583C-0.008,28.59 -0.106,28.495 -0.284,28.306C-0.482,28.091 -0.736,27.814 -1.05,27.471C-1.734,26.71 -2.679,25.659 -3.835,24.373C-6.183,21.754 -9.437,18.145 -13.074,14.199C-16.713,10.253 -20.046,6.717 -22.466,4.164C-23.654,2.907 -24.625,1.881 -25.328,1.137C-25.644,0.796 -25.899,0.52 -26.098,0.305C-26.272,0.113 -26.359,0.008 -26.351,0C-26.343,-0.007 -26.24,0.082 -26.052,0.26C-25.842,0.464 -25.573,0.726 -25.239,1.05C-24.537,1.74 -23.534,2.749 -22.303,4.007C-19.841,6.52 -16.48,10.034 -12.839,13.982C-9.2,17.93 -5.971,21.565 -3.665,24.223C-2.512,25.552 -1.587,26.634 -0.956,27.389C-0.66,27.748 -0.421,28.038 -0.235,28.264C-0.073,28.466 0.008,28.576 0,28.583" style="fill:white;fill-rule:nonzero;"/>
                </g>
                <g transform="matrix(1.24759,0,0,1.24759,-1.22822,-2.50496)">
                    <g opacity="0.3">
                        <g transform="matrix(0.677285,0.735721,0.735721,-0.677285,181.6,125.442)">
                            <path d="M-11.974,-18.508L42.187,-18.508C42.187,-18.508 43.232,-23.505 42.719,-26.73L-12.652,-26.668C-12.652,-26.668 -13.216,-22.478 -11.974,-18.508" style="fill:white;fill-rule:nonzero;"/>
                        </g>
                    </g>
                </g>
                <g transform="matrix(1.24759,0,0,1.24759,-1.22822,-2.50496)">
                    <g opacity="0.3">
                        <g transform="matrix(0.680736,0.732529,0.732529,-0.680736,170.424,132.155)">
                            <path d="M-8.867,-19.29L44.133,-19.29C44.133,-19.29 44.495,-19.17 43.263,-21.417L-8.116,-21.379C-8.116,-21.379 -8.683,-20.602 -8.867,-19.29" style="fill:white;fill-rule:nonzero;"/>
                        </g>
                    </g>
                </g>
                <g transform="matrix(1.24759,0,0,1.24759,304.717,245.033)">
                    <path d="M0,4.434C-7.706,-1.754 -26.591,-16.889 -27.454,-17.292C-28.54,-17.8 -45.161,-23.705 -48.345,-21.808C-51.529,-19.911 -60.065,-9.196 -60.065,-9.196C-60.065,-9.196 -59.255,-2.532 -51.809,-7.301C-46.128,-10.94 -45.247,-11.504 -45.147,-11.568C-45.153,-11.564 -45.159,-11.561 -45.159,-11.561L-37.243,-9.711C-37.243,-9.711 -46.897,-5.679 -48.939,-3.56C-50.982,-1.44 -54.21,6.678 -52.196,8.547C-50.182,10.416 -47.844,10.575 -47.844,10.575C-47.844,10.575 -51.829,16.235 -44.76,19.652C-44.76,19.652 -43.727,24.41 -40.24,26.275C-36.753,28.139 -30.256,27.48 -30.256,27.48C-30.256,27.48 -27.243,25.698 -29.481,22.744C-31.719,19.79 -35.848,19.381 -35.848,19.381L-30.731,16.396C-30.731,16.396 -28.069,17.211 -24.125,20.258C-24.125,20.258 -19.453,14.277 -14.788,10.896C-9.552,7.102 0,4.434 0,4.434" style="fill:rgb(255,193,157);fill-rule:nonzero;"/>
                </g>
                <g transform="matrix(1.24759,0,0,1.24759,263.848,269.928)">
                    <path d="M0,-13.007C-0.003,-13.03 -0.274,-13.025 -0.76,-12.962C-1.246,-12.901 -1.944,-12.761 -2.781,-12.493C-4.449,-11.971 -6.684,-10.815 -8.518,-8.822C-10.351,-6.828 -11.316,-4.503 -11.697,-2.798C-11.894,-1.941 -11.974,-1.233 -11.995,-0.744C-12.017,-0.255 -11.999,0.016 -11.976,0.017C-11.905,0.023 -11.889,-1.065 -11.438,-2.732C-10.998,-4.389 -10.02,-6.629 -8.239,-8.566C-6.459,-10.502 -4.309,-11.664 -2.694,-12.241C-1.071,-12.83 0.012,-12.936 0,-13.007" style="fill:rgb(255,156,106);fill-rule:nonzero;"/>
                </g>
                <g transform="matrix(1.24759,0,0,1.24759,264.273,257.953)">
                    <path d="M0,-12.021C-0.003,-12.047 -0.291,-12.025 -0.812,-11.964C-1.073,-11.937 -1.391,-11.893 -1.754,-11.809C-2.118,-11.729 -2.538,-11.66 -2.986,-11.516C-3.894,-11.276 -4.946,-10.884 -6.071,-10.354C-7.186,-9.804 -8.367,-9.103 -9.51,-8.233C-10.644,-7.349 -11.623,-6.386 -12.44,-5.449C-13.24,-4.496 -13.888,-3.579 -14.352,-2.762C-14.604,-2.366 -14.779,-1.977 -14.949,-1.646C-15.123,-1.316 -15.246,-1.02 -15.339,-0.774C-15.532,-0.287 -15.626,-0.014 -15.602,-0.004C-15.533,0.026 -15.109,-1.054 -14.123,-2.623C-13.637,-3.411 -12.977,-4.297 -12.177,-5.22C-11.36,-6.129 -10.392,-7.066 -9.28,-7.933C-8.157,-8.787 -6.865,-9.749 -5.779,-10.307C-4.682,-10.844 -3.796,-10.991 -2.91,-11.26C-1.141,-11.813 0.011,-11.947 0,-12.021" style="fill:rgb(255,156,106);fill-rule:nonzero;"/>
                </g>
                <g transform="matrix(1.24759,0,0,1.24759,266.076,233.758)">
                    <path d="M0,-2.52C0.01,-2.561 -0.389,-2.716 -1.075,-2.762C-1.757,-2.81 -2.726,-2.704 -3.698,-2.293C-5.013,-1.731 -5.476,-1.183 -5.856,-0.73C-6.299,-0.205 -6.466,0.19 -6.429,0.211C-6.341,0.29 -5.422,-1.173 -3.55,-1.945C-1.695,-2.756 -0.005,-2.402 0,-2.52" style="fill:rgb(255,156,106);fill-rule:nonzero;"/>
                </g>
                <g transform="matrix(1.24759,0,0,1.24759,376.75,305.999)">
                    <path d="M0,-91.763C0,-91.763 24.39,-89.423 32.133,-68.233C38.278,-51.414 41.617,-1.027 40.077,0L-2.984,-1.377C-3.551,-13.664 -6.86,-23.137 -11.498,-29.267L0,-91.763Z" style="fill:rgb(55,90,100);fill-rule:nonzero;"/>
                </g>
                <g transform="matrix(1.24759,0,0,1.24759,373.849,325.694)">
                    <path d="M0,-17.164C0.02,-17.194 0.32,-17.025 0.845,-16.693C1.372,-16.365 2.113,-15.855 3.007,-15.196C4.797,-13.882 7.167,-11.916 9.56,-9.51C11.956,-7.107 13.919,-4.739 15.265,-2.976C15.936,-2.092 16.463,-1.365 16.806,-0.848C17.153,-0.332 17.33,-0.038 17.301,-0.017C17.238,0.03 16.389,-1.046 14.977,-2.746C13.563,-4.444 11.569,-6.758 9.191,-9.143C6.816,-11.53 4.504,-13.523 2.782,-14.904C1.061,-16.289 -0.046,-17.097 0,-17.164" style="fill:rgb(255,156,106);fill-rule:nonzero;"/>
                </g>
                <g transform="matrix(-1.23016,-0.207802,-0.207802,1.23016,359.953,268.857)">
                    <path d="M-2.022,-24.11C-2.166,-24.11 -2.283,-18.674 -2.283,-11.97C-2.282,-5.265 -2.166,0.17 -2.022,0.17C-1.878,0.17 -1.762,-5.265 -1.761,-11.971C-1.762,-18.674 -1.878,-24.11 -2.022,-24.11" style="fill:rgb(26,46,53);fill-rule:nonzero;"/>
                </g>
                <g transform="matrix(1.24759,0,0,1.24759,299.837,417.022)">
                    <path d="M0,8.906C-0.001,8.888 0.245,8.851 0.715,8.798C1.237,8.745 1.921,8.676 2.774,8.59C4.621,8.415 7.194,8.172 10.348,7.874C16.741,7.26 25.566,6.338 35.288,5.11C45.012,3.878 53.79,2.574 60.135,1.576C63.264,1.08 65.816,0.675 67.648,0.384C68.495,0.255 69.175,0.152 69.693,0.073C70.162,0.008 70.41,-0.018 70.413,-0.001C70.416,0.017 70.174,0.078 69.712,0.176C69.197,0.28 68.523,0.415 67.683,0.584C65.92,0.93 63.361,1.395 60.194,1.939C53.861,3.031 45.085,4.394 35.353,5.627C25.624,6.856 16.786,7.72 10.38,8.24C7.178,8.501 4.584,8.688 2.79,8.792C1.934,8.838 1.247,8.875 0.723,8.903C0.25,8.922 0.001,8.924 0,8.906" style="fill:rgb(26,46,53);fill-rule:nonzero;"/>
                </g>
                <g transform="matrix(1.24759,0,0,1.24759,295.088,417.038)">
                    <path d="M0,2.456C-0.001,2.42 0.631,2.365 1.775,2.295C3.004,2.23 4.638,2.143 6.619,2.038C10.789,1.824 16.4,1.536 22.6,1.218C28.801,0.859 34.41,0.534 38.578,0.293C40.559,0.181 42.193,0.09 43.422,0.02C44.566,-0.035 45.201,-0.049 45.203,-0.014C45.206,0.022 44.577,0.105 43.437,0.223C42.298,0.342 40.646,0.491 38.605,0.66C34.521,0.998 28.874,1.397 22.629,1.738C16.386,2.079 10.729,2.296 6.633,2.406C4.585,2.461 2.928,2.492 1.781,2.498C0.635,2.505 0.001,2.492 0,2.456" style="fill:rgb(26,46,53);fill-rule:nonzero;"/>
                </g>
                <g transform="matrix(1.24759,0,0,1.24759,209.522,327.208)">
                    <path d="M0,-16.717C0.158,-17.33 0.416,-17.907 0.779,-18.427C1.499,-19.46 2.59,-20.247 3.825,-20.529C5.877,-20.997 8.176,-20.036 9.285,-18.247C9.211,-19.611 10.288,-20.883 11.606,-21.243C12.923,-21.603 13.946,-21.095 14.997,-20.223C16.048,-19.35 16.317,-18.656 16.744,-17.359C17.793,-19.715 23.187,-19.427 23.843,-17.658C23.843,-17.658 28.484,-22.738 30.857,-20.24C31.844,-19.203 31.421,-17.61 30.768,-16.016C29.896,-13.887 29.322,-12.999 28.181,-10.655L23.788,-10.415C23.418,-9.04 22.639,-3.449 22.474,-2.035C22.309,-0.62 22.027,0.819 21.274,2.029C20.522,3.238 19.215,4.184 17.792,4.164C16.368,4.144 14.966,2.924 15.049,1.502C14.75,2.677 14.25,3.836 13.384,4.684C12.518,5.533 11.236,6.021 10.063,5.715C8.889,5.409 7.959,4.183 8.197,2.994C6.631,4.079 4.316,3.115 3.322,1.49C2.327,-0.136 2.304,-2.156 2.364,-4.06C2.418,-5.748 2.571,-7.642 1.906,-9.24C1.801,-9.492 1.621,-9.71 1.56,-9.979C1.471,-10.376 1.531,-10.826 1.502,-11.233C1.44,-12.118 1.277,-12.999 0.973,-13.834C0.906,-14.018 0.833,-14.199 0.753,-14.377C0.539,-14.849 0.225,-15.25 -0.016,-15.702C-0.069,-15.801 -0.114,-15.899 -0.127,-16.012C-0.152,-16.242 -0.057,-16.498 0,-16.717" style="fill:rgb(255,193,157);fill-rule:nonzero;"/>
                </g>
                <g transform="matrix(1.24759,0,0,1.24759,203.356,318.059)">
                    <path d="M0,-11.823C-1.174,-11.865 -2.453,-11.622 -3.237,-10.747C-4.166,-9.709 -4.38,-7.225 -4.274,-5.836C-2.646,-5.528 -1.778,-5.891 -0.15,-5.584C0.193,-5.519 0.48,-5.606 0.764,-5.403C1.515,-4.87 1.393,-3.074 1.696,-2.204C2.22,-0.695 4.153,0.042 5.651,-0.513C7.148,-1.067 8.113,-2.661 8.189,-4.256C8.264,-5.852 7.562,-7.412 6.535,-8.635C4.929,-10.546 2.494,-11.734 0,-11.823" style="fill:rgb(255,193,157);fill-rule:nonzero;"/>
                </g>
                <g transform="matrix(1.24759,0,0,1.24759,237.945,304.964)">
                    <path d="M0,13.463C-0.166,13.428 0.504,10.448 0.928,6.741C1.132,4.887 1.179,3.2 1.106,1.985C1.042,0.768 0.9,0.021 0.98,0.002C1.039,-0.015 1.312,0.713 1.472,1.951C1.642,3.186 1.653,4.916 1.446,6.797C1.243,8.679 0.891,10.353 0.601,11.552C0.306,12.752 0.068,13.478 0,13.463" style="fill:rgb(255,156,106);fill-rule:nonzero;"/>
                </g>
                <g transform="matrix(1.24759,0,0,1.24759,228.054,305.557)">
                    <path d="M0,19.389C-0.073,19.373 0.115,18.29 0.435,16.549C0.753,14.806 1.199,12.403 1.537,9.731C1.875,7.058 1.995,4.622 1.959,2.859C1.933,1.097 1.806,0.008 1.89,-0.005C1.948,-0.015 2.206,1.063 2.327,2.845C2.459,4.624 2.395,7.098 2.054,9.795C1.712,12.491 1.206,14.897 0.796,16.624C0.382,18.351 0.068,19.404 0,19.389" style="fill:rgb(255,156,106);fill-rule:nonzero;"/>
                </g>
                <g transform="matrix(1.24759,0,0,1.24759,219.686,304.07)">
                    <path d="M0,21.723C-0.078,21.702 0.199,20.507 0.549,18.562C0.901,16.617 1.289,13.914 1.455,10.907C1.617,7.899 1.525,5.169 1.387,3.198C1.25,1.227 1.105,0.008 1.185,-0.004C1.221,-0.009 1.297,0.289 1.405,0.835C1.517,1.38 1.638,2.176 1.754,3.165C1.987,5.14 2.138,7.897 1.975,10.936C1.807,13.973 1.357,16.697 0.91,18.635C0.688,19.605 0.48,20.383 0.31,20.913C0.143,21.444 0.035,21.732 0,21.723" style="fill:rgb(255,156,106);fill-rule:nonzero;"/>
                </g>
                <g transform="matrix(1.24759,0,0,1.24759,208.652,317.491)">
                    <path d="M0,-8.617C0.023,-8.67 0.602,-8.502 1.37,-7.925C2.133,-7.358 3.054,-6.333 3.593,-4.956C4.133,-3.581 4.174,-2.189 3.889,-1.249C3.598,-0.282 2.991,0.053 2.971,-0.008C2.912,-0.066 3.365,-0.46 3.532,-1.339C3.702,-2.203 3.61,-3.491 3.109,-4.765C2.606,-6.045 1.799,-7.032 1.133,-7.642C0.467,-8.26 -0.04,-8.541 0,-8.617" style="fill:rgb(255,156,106);fill-rule:nonzero;"/>
                </g>
            </g>
        </g>
    </g>
</svg>
